<svg xmlns="http://www.w3.org/2000/svg" version="1.1" class="w100 h-auto" width="660" height="400" viewBox="0 0 585 395"><g></g><g class="chart-area" font-family="sans-serif" transform="translate(100, 20)"><g transform="translate(0,300)" fill="none" font-size="10" font-family="sans-serif" text-anchor="middle"><path class="domain" stroke="currentColor" d="M0,6V0H410V6"></path><g class="tick" opacity="1" transform="translate(35.96902342647474,0)"><line stroke="currentColor" y2="6"></line><text fill="currentColor" y="9" dy="0.71em" style="font-size: 12px;">2010</text></g><g class="tick" opacity="1" transform="translate(86.6548828676263,0)"><line stroke="currentColor" y2="6"></line><text fill="currentColor" y="9" dy="0.71em" style="font-size: 12px;">2012</text></g><g class="tick" opacity="1" transform="translate(137.41017499294384,0)"><line stroke="currentColor" y2="6"></line><text fill="currentColor" y="9" dy="0.71em" style="font-size: 12px;">2014</text></g><g class="tick" opacity="1" transform="translate(188.0960344340954,0)"><line stroke="currentColor" y2="6"></line><text fill="currentColor" y="9" dy="0.71em" style="font-size: 12px;">2016</text></g><g class="tick" opacity="1" transform="translate(238.85132655941294,0)"><line stroke="currentColor" y2="6"></line><text fill="currentColor" y="9" dy="0.71em" style="font-size: 12px;">2018</text></g><g class="tick" opacity="1" transform="translate(289.5371860005645,0)"><line stroke="currentColor" y2="6"></line><text fill="currentColor" y="9" dy="0.71em" style="font-size: 12px;">2020</text></g><g class="tick" opacity="1" transform="translate(340.29247812588204,0)"><line stroke="currentColor" y2="6"></line><text fill="currentColor" y="9" dy="0.71em" style="font-size: 12px;">2022</text></g><g class="tick" opacity="1" transform="translate(390.9783375670336,0)"><line stroke="currentColor" y2="6"></line><text fill="currentColor" y="9" dy="0.71em" style="font-size: 12px;">2024</text></g></g><g class="grid-lines" transform="translate(0,300)" fill="none" font-size="10" font-family="sans-serif" text-anchor="middle"><path class="domain" stroke="currentColor" d="M0,-300V0H410V-300"></path><g class="tick" opacity="1" transform="translate(35.96902342647474,0)"><line stroke="currentColor" y2="-300" style="stroke: #ccc; fill: none;"></line></g><g class="tick" opacity="1" transform="translate(86.6548828676263,0)"><line stroke="currentColor" y2="-300" style="stroke: #ccc; fill: none;"></line></g><g class="tick" opacity="1" transform="translate(137.41017499294384,0)"><line stroke="currentColor" y2="-300" style="stroke: #ccc; fill: none;"></line></g><g class="tick" opacity="1" transform="translate(188.0960344340954,0)"><line stroke="currentColor" y2="-300" style="stroke: #ccc; fill: none;"></line></g><g class="tick" opacity="1" transform="translate(238.85132655941294,0)"><line stroke="currentColor" y2="-300" style="stroke: #ccc; fill: none;"></line></g><g class="tick" opacity="1" transform="translate(289.5371860005645,0)"><line stroke="currentColor" y2="-300" style="stroke: #ccc; fill: none;"></line></g><g class="tick" opacity="1" transform="translate(340.29247812588204,0)"><line stroke="currentColor" y2="-300" style="stroke: #ccc; fill: none;"></line></g><g class="tick" opacity="1" transform="translate(390.9783375670336,0)"><line stroke="currentColor" y2="-300" style="stroke: #ccc; fill: none;"></line></g></g><text x="205" y="360" class="axis-label x-axis-label" style="text-anchor: middle; font-weight: bold;">Year</text><g fill="none" font-size="10" font-family="sans-serif" text-anchor="end"><path class="domain" stroke="currentColor" d="M-6,300H0V0H-6"></path><g class="tick" opacity="1" transform="translate(0,300)"><line stroke="currentColor" x2="-6"></line><text fill="currentColor" x="-9" dy="0.32em" style="font-size: 12px;">0.00%</text></g><g class="tick" opacity="1" transform="translate(0,266.66666666666663)"><line stroke="currentColor" x2="-6"></line><text fill="currentColor" x="-9" dy="0.32em" style="font-size: 12px;">2.00%</text></g><g class="tick" opacity="1" transform="translate(0,233.33333333333334)"><line stroke="currentColor" x2="-6"></line><text fill="currentColor" x="-9" dy="0.32em" style="font-size: 12px;">4.00%</text></g><g class="tick" opacity="1" transform="translate(0,200.00000000000003)"><line stroke="currentColor" x2="-6"></line><text fill="currentColor" x="-9" dy="0.32em" style="font-size: 12px;">6.00%</text></g><g class="tick" opacity="1" transform="translate(0,166.66666666666669)"><line stroke="currentColor" x2="-6"></line><text fill="currentColor" x="-9" dy="0.32em" style="font-size: 12px;">8.00%</text></g><g class="tick" opacity="1" transform="translate(0,133.33333333333331)"><line stroke="currentColor" x2="-6"></line><text fill="currentColor" x="-9" dy="0.32em" style="font-size: 12px;">10.00%</text></g><g class="tick" opacity="1" transform="translate(0,100.00000000000001)"><line stroke="currentColor" x2="-6"></line><text fill="currentColor" x="-9" dy="0.32em" style="font-size: 12px;">12.00%</text></g><g class="tick" opacity="1" transform="translate(0,66.66666666666663)"><line stroke="currentColor" x2="-6"></line><text fill="currentColor" x="-9" dy="0.32em" style="font-size: 12px;">14.00%</text></g><g class="tick" opacity="1" transform="translate(0,33.333333333333314)"><line stroke="currentColor" x2="-6"></line><text fill="currentColor" x="-9" dy="0.32em" style="font-size: 12px;">16.00%</text></g><g class="tick" opacity="1" transform="translate(0,0)"><line stroke="currentColor" x2="-6"></line><text fill="currentColor" x="-9" dy="0.32em" style="font-size: 12px;">18.00%</text></g></g><g class="grid-lines" fill="none" font-size="10" font-family="sans-serif" text-anchor="end"><path class="domain" stroke="currentColor" d="M410,300H0V0H410"></path><g class="tick" opacity="1" transform="translate(0,300)"><line stroke="currentColor" x2="410" style="stroke: #ccc; fill: none;"></line></g><g class="tick" opacity="1" transform="translate(0,266.66666666666663)"><line stroke="currentColor" x2="410" style="stroke: #ccc; fill: none;"></line></g><g class="tick" opacity="1" transform="translate(0,233.33333333333334)"><line stroke="currentColor" x2="410" style="stroke: #ccc; fill: none;"></line></g><g class="tick" opacity="1" transform="translate(0,200.00000000000003)"><line stroke="currentColor" x2="410" style="stroke: #ccc; fill: none;"></line></g><g class="tick" opacity="1" transform="translate(0,166.66666666666669)"><line stroke="currentColor" x2="410" style="stroke: #ccc; fill: none;"></line></g><g class="tick" opacity="1" transform="translate(0,133.33333333333331)"><line stroke="currentColor" x2="410" style="stroke: #ccc; fill: none;"></line></g><g class="tick" opacity="1" transform="translate(0,100.00000000000001)"><line stroke="currentColor" x2="410" style="stroke: #ccc; fill: none;"></line></g><g class="tick" opacity="1" transform="translate(0,66.66666666666663)"><line stroke="currentColor" x2="410" style="stroke: #ccc; fill: none;"></line></g><g class="tick" opacity="1" transform="translate(0,33.333333333333314)"><line stroke="currentColor" x2="410" style="stroke: #ccc; fill: none;"></line></g><g class="tick" opacity="1" transform="translate(0,0)"><line stroke="currentColor" x2="410" style="stroke: #ccc; fill: none;"></line></g></g><g class="lines"><path class="line" d="M2.152,163.73L4.235,166.685L6.391,172.668L8.474,184.259L10.626,177.872L12.779,184.434L14.723,182.309L16.872,178.959L18.955,181.256L21.108,174.032L23.191,182.621L25.343,187.369L27.495,184.659L29.578,183.901L31.734,179.211L33.817,180.369L35.969,160.583L38.121,165.779L40.066,156.964L42.215,169.941L44.298,165.238L46.45,170.945L48.533,175.517L50.686,175.949L52.838,170.867L54.921,167.91L57.077,165.278L59.16,163.156L61.312,162.795L63.464,161.13L65.408,159.187L67.558,161.413L69.641,156.981L71.793,166.448L73.876,164.038L76.029,164.343L78.181,163.113L80.264,158.557L82.419,151.798L84.502,151.622L86.655,153.613L88.807,151.835L90.821,144.912L92.97,143.703L95.053,148.168L97.206,158.04L99.289,155.468L101.441,154.882L103.594,152.808L105.677,149.253L107.832,146.101L109.915,146.295L112.067,154.224L114.22,150.215L116.164,146.535L118.313,141.633L120.396,146.625L122.549,152.743L124.632,156.239L126.784,152.058L128.936,135.757L131.019,130.096L133.175,122.252L135.258,123.673L137.41,134.619L139.563,128.838L141.507,123.164L143.656,120.497L145.739,129.569L147.892,136.23L149.975,136.006L152.127,138.812L154.279,131.742L156.362,126.72L158.518,120.709L160.601,123.47L162.753,132.87L164.906,133.057L166.85,125.261L168.999,124.888L171.082,132.333L173.235,140.407L175.318,139.469L177.47,141.76L179.622,139.876L181.705,132.798L183.861,132.459L185.944,138.816L188.096,145.696L190.248,140.758L192.262,134.121L194.412,133.526L196.494,149.024L198.647,154.798L200.73,158.006L202.882,159.509L205.035,156.291L207.118,152.898L209.273,149.678L211.356,156.533L213.508,161.417L215.661,160.173L217.605,155.533L219.754,150.013L221.837,152.675L223.99,161.971L226.073,167.794L228.225,169.559L230.378,167.599L232.461,161.446L234.616,158.835L236.699,161.28L238.851,170.372L241.004,167.726L242.948,167.952L245.097,160.361L247.18,164.672L249.333,171.328L251.416,176.016L253.568,179.498L255.721,174.729L257.804,168.487L259.959,168.106L262.042,166.713L264.194,175.44L266.347,173.294L268.291,173.823L270.44,177.17L272.523,176.405L274.676,180.381L276.759,178.971L278.911,188.171L281.064,180.776L283.146,176.196L285.302,182.787L287.385,185.403L289.537,185.868L291.69,183.446L293.703,180.635L295.853,183.953L297.936,191.611L300.088,193.957L302.171,194.115L304.323,194.376L306.476,193.715L308.559,193.938L310.714,194.303L312.797,201.913L314.95,203.356L317.102,203.169L319.046,201.856L321.196,201.877L323.279,200.095L325.431,201.009L327.514,205.741L329.666,207.001L331.819,207.207L333.902,207.285L336.057,202.45L338.14,207.269L340.292,209.269L342.445,212.496L344.389,210.528L346.539,206.508L348.622,206.32L350.774,213.757L352.857,217.913L355.009,220.922L357.162,218.212L359.245,216.176L361.4,216.91L363.483,216.086L365.635,218.481L367.788,219.653L369.732,213.314L371.881,210.634L373.964,215.38L376.117,211.33L378.2,215.309L380.352,214.368L382.505,214.283L384.588,214.18L386.743,212.784L388.826,222.247L390.978,220.941L393.131,221.623L395.144,218.272L397.294,222.404L399.377,227.881L401.529,228.207L403.612,233.499L405.765,239.336L407.917,228.586L410,211.514" data-legend="java" style="stroke: rgb(31, 119, 180); fill: none;"></path><path class="line" d="M2.152,261.17L4.235,264.752L6.391,265.564L8.474,273.625L10.626,266.159L12.779,268.176L14.723,264.651L16.872,264.013L18.955,268.562L21.108,270.195L23.191,271.998L25.343,272.706L27.495,270.756L29.578,264.149L31.734,257.998L33.817,262.132L35.969,263.347L38.121,261.157L40.066,264.128L42.215,260.333L44.298,261.848L46.45,265.185L48.533,264.473L50.686,263.961L52.838,262.351L54.921,262.068L57.077,259.583L59.16,264.562L61.312,269.337L63.464,266.94L65.408,264.88L67.558,264.254L69.641,269.423L71.793,270.126L73.876,272.265L76.029,271.312L78.181,268.355L80.264,264.427L82.419,265.988L84.502,267.446L86.655,267.75L88.807,267.354L90.821,265.778L92.97,265.101L95.053,268.978L97.206,270.334L99.289,272.005L101.441,272.532L103.594,267.904L105.677,264.677L107.832,263.867L109.915,268.232L112.067,269.078L114.22,266.053L116.164,266.881L118.313,265.49L120.396,267.813L122.549,268.878L124.632,271.471L126.784,270.386L128.936,265.742L131.019,261.491L133.175,259.385L135.258,264.564L137.41,266.922L139.563,264.567L141.507,263.251L143.656,265.509L145.739,269.025L147.892,271.429L149.975,273.233L152.127,272.524L154.279,267.369L156.362,263.175L158.518,263.156L160.601,265.971L162.753,267.517L164.906,266.449L166.85,265.278L168.999,264.981L171.082,268.127L173.235,271.638L175.318,275.818L177.47,276.147L179.622,270.806L181.705,266.795L183.861,265.913L185.944,269.875L188.096,271.708L190.248,270.724L192.262,271.249L194.412,271.281L196.494,275.821L198.647,279.015L200.73,277.663L202.882,279.527L205.035,275.377L207.118,269.191L209.273,268.66L211.356,271.001L213.508,273.734L215.661,273.766L217.605,275.242L219.754,273.12L221.837,275.215L223.99,277.848L226.073,280.886L228.225,280.625L230.378,278.2L232.461,272.517L234.616,270.605L236.699,274.568L238.851,276.775L241.004,276.437L242.948,275.996L245.097,277.36L247.18,276.215L249.333,279.981L251.416,283.115L253.568,282.13L255.721,278.563L257.804,274.265L259.959,271.579L262.042,272.006L264.194,274.224L266.347,276.32L268.291,275.04L270.44,273.272L272.523,276.654L274.676,278.528L276.759,280.43L278.911,280.938L281.064,275.269L283.146,272.601L285.302,271.467L287.385,272.71L289.537,276.447L291.69,276.983L293.703,273.21L295.853,270.062L297.936,269.62L300.088,274.608L302.171,278.74L304.323,278.486L306.476,274.419L308.559,271.849L310.714,266.378L312.797,266.779L314.95,269.098L317.102,271.327L319.046,271.871L321.196,271.501L323.279,273.754L325.431,275.603L327.514,278.066L329.666,278.895L331.819,276.022L333.902,270.387L336.057,268.83L338.14,268.512L340.292,272.474L342.445,275.2L344.389,273.448L346.539,274.364L348.622,274.378L350.774,276.413L352.857,279.021L355.009,278.619L357.162,274.853L359.245,270.029L361.4,269.196L363.483,269.874L365.635,274.998L367.788,275.78L369.732,276.904L371.881,272.873L373.964,275L376.117,278.218L378.2,277.367L380.352,277.607L382.505,273.719L384.588,271.361L386.743,269.932L388.826,273.431L390.978,277.36L393.131,278.2L395.144,278.573L397.294,277.66L399.377,278.853L401.529,277.904L403.612,277.494L405.765,276.425L407.917,276.078L410,273.68" data-legend="c" style="stroke: rgb(255, 127, 14); fill: none;"></path><path class="line" d="M2.152,235.081L4.235,241.253L6.391,240.338L8.474,238.692L10.626,232.637L12.779,239.429L14.723,236.901L16.872,239.044L18.955,234.832L21.108,237.823L23.191,239.668L25.343,241.646L27.495,240.233L29.578,234.195L31.734,232.043L33.817,229.221L35.969,227.481L38.121,230.091L40.066,233.317L42.215,239.29L44.298,234.967L46.45,233.51L48.533,228.586L50.686,234.236L52.838,238.278L54.921,229.645L57.077,237.275L59.16,240.244L61.312,239.095L63.464,239.093L65.408,237.661L67.558,241.543L69.641,241.111L71.793,241.237L73.876,238.953L76.029,240.028L78.181,242.019L80.264,240.079L82.419,240.301L84.502,241.281L86.655,239.201L88.807,238.956L90.821,236.724L92.97,235.83L95.053,236.328L97.206,232.248L99.289,232.305L101.441,230.433L103.594,233.34L105.677,231.296L107.832,227.495L109.915,228.734L112.067,230.113L114.22,226.224L116.164,226.452L118.313,222.393L120.396,221.329L122.549,219.522L124.632,218.22L126.784,221.731L128.936,219.449L131.019,213.719L133.175,209.736L135.258,214.477L137.41,212.656L139.563,211.709L141.507,207.857L143.656,207.331L145.739,212.068L147.892,208.004L149.975,206.145L152.127,206.425L154.279,211.435L156.362,207.05L158.518,203.648L160.601,202.323L162.753,202.055L164.906,198.248L166.85,197.307L168.999,198.84L171.082,198.483L173.235,194.43L175.318,194.06L177.47,195.968L179.622,196.322L181.705,187.377L183.861,184.03L185.944,186.438L188.096,185.269L190.248,181.688L192.262,182.536L194.412,183.313L196.494,183.61L198.647,182.235L200.73,178.114L202.882,180.52L205.035,178.89L207.118,170.376L209.273,163.842L211.356,164.835L213.508,164.232L215.661,158.055L217.605,157.039L219.754,152.609L221.837,154.04L223.99,148.856L226.073,141.726L228.225,143.605L230.378,139.587L232.461,132.386L234.616,131.007L236.699,127.224L238.851,129.625L241.004,120.677L242.948,125.634L245.097,124.21L247.18,123.296L249.333,116.437L251.416,110.478L253.568,110.777L255.721,112.516L257.804,108.935L259.959,96.697L262.042,99.083L264.194,108.325L266.347,97.685L268.291,91.213L270.44,81.631L272.523,88.853L274.676,85.764L276.759,79.082L278.911,77.737L281.064,91.473L283.146,73.856L285.302,65.653L287.385,69.669L289.537,70.525L291.69,67.357L293.703,55.412L295.853,45.62L297.936,34.27L300.088,34.199L302.171,33.253L304.323,38.583L306.476,41.437L308.559,29.248L310.714,23.603L312.797,21.365L314.95,24.6L317.102,26.044L319.046,30.103L321.196,22.152L323.279,18.334L325.431,27.202L327.514,20.954L329.666,26.595L331.819,32.946L333.902,20.024L336.057,16.947L338.14,14.743L340.292,22.345L342.445,15.15L344.389,17.583L346.539,7.918L348.622,18.916L350.774,16.607L352.857,11.035L355.009,21.754L357.162,22.881L359.245,6.473L361.4,10.218L363.483,23.639L365.635,39.32L367.788,43.628L369.732,52.394L371.881,51.781L373.964,57.028L376.117,58.88L378.2,57.23L380.352,67.185L382.505,76.42L384.588,69.889L386.743,72.816L388.826,86.049L390.978,87.107L393.131,78.475L395.144,85.845L397.294,78.517L399.377,80.302L401.529,86.469L403.612,85.033L405.765,84.659L407.917,97.85L410,96.152" data-legend="python" style="stroke: rgb(44, 160, 44); fill: none;"></path><path class="line" d="M2.152,100.995L4.235,69.084L6.391,69.227L8.474,76.375L10.626,46.669L12.779,50.505L14.723,39.428L16.872,38.181L18.955,67.687L21.108,68.552L23.191,70.457L25.343,70.764L27.495,77.703L29.578,80.759L31.734,95.032L33.817,99.855L35.969,108.452L38.121,108.754L40.066,105.88L42.215,105.97L44.298,108.14L46.45,114.751L48.533,115.31L50.686,116.262L52.838,123.957L54.921,122.781L57.077,123.582L59.16,128.54L61.312,132.259L63.464,133.668L65.408,133.935L67.558,137.26L69.641,132.832L71.793,134.977L73.876,139.987L76.029,142.764L78.181,147.298L80.264,147.682L82.419,147.566L84.502,149.405L86.655,149.839L88.807,154.444L90.821,154.918L92.97,155.735L95.053,156.179L97.206,155.069L99.289,154.684L101.441,158.355L103.594,157.021L105.677,157.686L107.832,161.332L109.915,164.267L112.067,164.253L114.22,163.092L116.164,162.377L118.313,164.179L120.396,164.555L122.549,164.675L124.632,165.523L126.784,163.68L128.936,160.906L131.019,161.865L133.175,161.434L135.258,162.111L137.41,164.096L139.563,165.14L141.507,169.665L143.656,168.097L145.739,167.882L147.892,171.365L149.975,170.748L152.127,171.934L154.279,175.518L156.362,178.287L158.518,180.631L160.601,180.399L162.753,181.218L164.906,182.348L166.85,182.569L168.999,184.149L171.082,179.131L173.235,178.926L175.318,178.623L177.47,177.382L179.622,177.706L181.705,184.501L183.861,183.226L185.944,181.658L188.096,185.11L190.248,186.315L192.262,186.46L194.412,182.704L196.494,180.093L198.647,180.883L200.73,185.915L202.882,182.245L205.035,191L207.118,189.989L209.273,188.043L211.356,189.21L213.508,188.647L215.661,189.633L217.605,191.528L219.754,195.464L221.837,191.922L223.99,193.263L226.073,195.044L228.225,196.063L230.378,197.494L232.461,198.817L234.616,202.508L236.699,200.49L238.851,201.574L241.004,205.682L242.948,204.637L245.097,204.373L247.18,200.274L249.333,204.065L251.416,200.703L253.568,198.939L255.721,202.206L257.804,201.724L259.959,204.467L262.042,203.697L264.194,201.136L266.347,203.742L268.291,206.051L270.44,199.758L272.523,199.258L274.676,205.545L276.759,205.629L278.911,205.071L281.064,203.204L283.146,206.989L285.302,208.776L287.385,208.314L289.537,210.435L291.69,210.46L293.703,215.948L295.853,220.923L297.936,222.443L300.088,222.555L302.171,220.821L304.323,219.797L306.476,223.187L308.559,226.451L310.714,225.346L312.797,227.894L314.95,225.463L317.102,225.794L319.046,227.688L321.196,226.943L323.279,227.97L325.431,226.521L327.514,229.459L329.666,229.587L331.819,229.055L333.902,225.286L336.057,221.132L338.14,224.616L340.292,225.771L342.445,224.71L344.389,222.628L346.539,223.461L348.622,220.388L350.774,219.816L352.857,220.623L355.009,218.156L357.162,219.026L359.245,220.151L361.4,220.439L363.483,218.735L365.635,218.237L367.788,219.102L369.732,218.376L371.881,218.497L373.964,218.045L376.117,213.854L378.2,211.622L380.352,212.934L382.505,214.955L384.588,215.178L386.743,211.408L388.826,218.833L390.978,226.037L393.131,223.37L395.144,224.741L397.294,217.662L399.377,220.939L401.529,220.564L403.612,215.458L405.765,216.706L407.917,220.042L410,216.159" data-legend="c#" style="stroke: rgb(214, 39, 40); fill: none;"></path><path class="line" d="M2.152,223.189L4.235,216.242L6.391,222.453L8.474,212.318L10.626,215.983L12.779,209.239L14.723,216.997L16.872,217.245L18.955,206.407L21.108,207.54L23.191,208.589L25.343,204.24L27.495,210.222L29.578,204.985L31.734,202.054L33.817,197.114L35.969,201.621L38.121,200.865L40.066,203.73L42.215,198.783L44.298,195.358L46.45,195.041L48.533,192.672L50.686,194.339L52.838,190.159L54.921,191.871L57.077,190.339L59.16,180.343L61.312,186.118L63.464,186.644L65.408,187.457L67.558,179.163L69.641,177.707L71.793,169.898L73.876,164.775L76.029,160.647L78.181,165.478L80.264,167.268L82.419,166.758L84.502,165.332L86.655,161.279L88.807,164.962L90.821,165.747L92.97,161.205L95.053,156.331L97.206,156.089L99.289,154.411L101.441,152.669L103.594,158.306L105.677,161.099L107.832,160.207L109.915,154.448L112.067,153.273L114.22,150.666L116.164,152.449L118.313,150.268L120.396,148.466L122.549,145.548L124.632,140.458L126.784,134.323L128.936,121.068L131.019,120.798L133.175,124.429L135.258,117.538L137.41,112.781L139.563,111.592L141.507,117.449L143.656,115.407L145.739,112.044L147.892,111.444L149.975,109.886L152.127,110.996L154.279,117.221L156.362,116.691L158.518,119.204L160.601,116.827L162.753,112.834L164.906,114.127L166.85,118.425L168.999,114.964L171.082,99.824L173.235,97.752L175.318,94.062L177.47,94.788L179.622,97.829L181.705,103.392L183.861,99.545L185.944,94.674L188.096,90.985L190.248,99.516L192.262,99.111L194.412,99.557L196.494,95.876L198.647,97.894L200.73,88.795L202.882,90.21L205.035,99.319L207.118,103.707L209.273,103.048L211.356,94.743L213.508,96.262L215.661,96.325L217.605,102.134L219.754,99.916L221.837,98.044L223.99,96.225L226.073,97.707L228.225,97.602L230.378,103.022L232.461,103.693L234.616,106.694L236.699,103.627L238.851,101.611L241.004,110.537L242.948,113.578L245.097,113.97L247.18,118.39L249.333,112.311L251.416,111.854L253.568,109.612L255.721,112.798L257.804,116.838L259.959,117.518L262.042,117.844L264.194,118.832L266.347,119.098L268.291,118.224L270.44,122.082L272.523,119.847L274.676,115.915L276.759,119.623L278.911,112.625L281.064,116.502L283.146,123.34L285.302,120.974L287.385,118.071L289.537,115.936L291.69,117.144L293.703,110.444L295.853,107.602L297.936,106.013L300.088,105.91L302.171,98.408L304.323,95.404L306.476,100.476L308.559,104.966L310.714,106.556L312.797,98.78L314.95,96.987L317.102,104.616L319.046,110.17L321.196,103.593L323.279,101.163L325.431,104.183L327.514,99.923L329.666,98.6L331.819,97.629L333.902,104.619L336.057,110.032L338.14,103.996L340.292,103.395L342.445,110.758L344.389,114.93L346.539,101.66L348.622,107.204L350.774,109.546L352.857,106.535L355.009,105.272L357.162,106.981L359.245,115.578L361.4,119.951L363.483,121.022L365.635,125.697L367.788,133.059L369.732,136.001L371.881,138.395L373.964,144.085L376.117,144.07L378.2,140.037L380.352,152.508L382.505,155.966L384.588,165.213L386.743,165.2L388.826,155.079L390.978,159.761L393.131,165.991L395.144,163.416L397.294,172.405L399.377,173.342L401.529,174.67L403.612,179.086L405.765,177.934L407.917,181.575L410,189.323" data-legend="javascript" style="stroke: rgb(148, 103, 189); fill: none;"></path><path class="line" d="M2.152,299.272L4.235,300L6.391,299.867L8.474,299.86L10.626,299.146L12.779,299.231L14.723,299.67L16.872,299.049L18.955,299.869L21.108,299.701L23.191,297.445L25.343,297.575L27.495,292.945L29.578,296.61L31.734,295.923L33.817,296.428L35.969,296.477L38.121,295.417L40.066,295.52L42.215,294.621L44.298,295.498L46.45,294.686L48.533,293.553L50.686,292.523L52.838,293.514L54.921,294.359L57.077,294.181L59.16,294.609L61.312,294.763L63.464,293.469L65.408,292.966L67.558,291.662L69.641,292.868L71.793,292.489L73.876,292.413L76.029,290.783L78.181,289.876L80.264,289.708L82.419,290.621L84.502,290.023L86.655,289.945L88.807,288.922L90.821,288.766L92.97,289.007L95.053,289.024L97.206,287.524L99.289,286.81L101.441,287.105L103.594,286.548L105.677,285.808L107.832,284.724L109.915,284.961L112.067,283.936L114.22,281.801L116.164,282.171L118.313,282.033L120.396,282.04L122.549,281.224L124.632,281.356L126.784,281.088L128.936,282.678L131.019,281.001L133.175,279.249L135.258,280.629L137.41,279.16L139.563,276.599L141.507,277.406L143.656,276.434L145.739,275.377L147.892,275.225L149.975,275.039L152.127,274.667L154.279,276.15L156.362,273.106L158.518,272.751L160.601,274.5L162.753,272.843L164.906,270.35L166.85,268.438L168.999,270.52L171.082,268.998L173.235,269.35L175.318,265.719L177.47,267.583L179.622,268.512L181.705,266.795L183.861,266.594L185.944,268.956L188.096,267.125L190.248,267.932L192.262,266.203L194.412,264.684L196.494,266.233L198.647,264.739L200.73,264.337L202.882,264.924L205.035,267.562L207.118,263.631L209.273,265.783L211.356,267.292L213.508,266.75L215.661,264.639L217.605,261.503L219.754,259.798L221.837,261.042L223.99,257.977L226.073,257.079L228.225,256.649L230.378,256.109L232.461,254.992L234.616,255.068L236.699,256.913L238.851,255.843L241.004,250.416L242.948,250.244L245.097,250.92L247.18,252.389L249.333,250.998L251.416,253.411L253.568,256.181L255.721,256.046L257.804,254.123L259.959,252.307L262.042,256.536L264.194,255.351L266.347,250.974L268.291,252.826L270.44,249.305L272.523,251.941L274.676,250.871L276.759,252.977L278.911,251.226L281.064,251.293L283.146,251.459L285.302,251.182L287.385,252.287L289.537,252.353L291.69,245.598L293.703,244.633L295.853,243.007L297.936,245.606L300.088,246.59L302.171,249.775L304.323,248.862L306.476,243.3L308.559,239.657L310.714,239.879L312.797,245.325L314.95,247.619L317.102,244.528L319.046,241.298L321.196,240.415L323.279,241.143L325.431,243.953L327.514,244.953L329.666,244.215L331.819,245.063L333.902,240.831L336.057,243.018L338.14,246.798L340.292,245.655L342.445,241.97L344.389,238.802L346.539,238.361L348.622,239.935L350.774,241.116L352.857,244.265L355.009,243.439L357.162,242.431L359.245,237.784L361.4,238.376L363.483,244.069L365.635,243.309L367.788,235.577L369.732,236.429L371.881,236.139L373.964,239.771L376.117,241.374L378.2,245.612L380.352,243.794L382.505,244.241L384.588,244.204L386.743,244.261L388.826,250.493L390.978,250.209L393.131,247.863L395.144,250.764L397.294,253.345L399.377,255.906L401.529,256.932L403.612,258.037L405.765,260.571L407.917,262.497L410,260.263" data-legend="r" style="stroke: rgb(140, 86, 75); fill: none;"></path></g></g><g transform="translate(20, 150)"><text font-family="sans-serif" transform="rotate(-90)" x="-50" y="0" dy="1em" class="axis-label y-axis-label" style="text-anchor: middle; font-weight: bold;">% of Stack Overflow questions that month</text></g><g font-family="sans-serif" class="legend" transform="translate(530, 20)" style="font-size: 12px;"><rect y="0" width="10" height="10" style="fill: rgb(31, 119, 180);"></rect><rect y="15" width="10" height="10" style="fill: rgb(255, 127, 14);"></rect><rect y="30" width="10" height="10" style="fill: rgb(44, 160, 44);"></rect><rect y="45" width="10" height="10" style="fill: rgb(214, 39, 40);"></rect><rect y="60" width="10" height="10" style="fill: rgb(148, 103, 189);"></rect><rect y="75" width="10" height="10" style="fill: rgb(140, 86, 75);"></rect><text font-size="10px" x="13" y="5" text-anchor="left">java</text><text font-size="10px" x="13" y="20" text-anchor="left">c</text><text font-size="10px" x="13" y="35" text-anchor="left">python</text><text font-size="10px" x="13" y="50" text-anchor="left">c#</text><text font-size="10px" x="13" y="65" text-anchor="left">javascript</text><text font-size="10px" x="13" y="80" text-anchor="left">r</text></g></svg>